<?xml version="1.0" encoding="UTF-8" standalone="no"?>
<!-- Created with Inkscape (http://www.inkscape.org/) -->

<svg
   width="15.999998"
   height="16.000002"
   viewBox="0 0 4.2333327 4.2333336"
   version="1.1"
   id="svg9170"
   inkscape:version="1.1.2 (0a00cf5339, 2022-02-04)"
   sodipodi:docname="icon.svg"
   xmlns:inkscape="http://www.inkscape.org/namespaces/inkscape"
   xmlns:sodipodi="http://sodipodi.sourceforge.net/DTD/sodipodi-0.dtd"
   xmlns="http://www.w3.org/2000/svg"
   xmlns:svg="http://www.w3.org/2000/svg">
  <sodipodi:namedview
     id="namedview9172"
     pagecolor="#ffffff"
     bordercolor="#666666"
     borderopacity="1.0"
     inkscape:pageshadow="2"
     inkscape:pageopacity="0.0"
     inkscape:pagecheckerboard="0"
     inkscape:document-units="mm"
     showgrid="false"
     fit-margin-top="0"
     fit-margin-left="0"
     fit-margin-right="0"
     fit-margin-bottom="0"
     inkscape:zoom="8.4666666"
     inkscape:cx="0.70866142"
     inkscape:cy="17.362205"
     inkscape:window-width="1920"
     inkscape:window-height="1031"
     inkscape:window-x="0"
     inkscape:window-y="25"
     inkscape:window-maximized="1"
     inkscape:current-layer="layer1"
     units="px" />
  <defs
     id="defs9167" />
  <g
     inkscape:label="Layer 1"
     inkscape:groupmode="layer"
     id="layer1"
     transform="translate(-65.917832,-46.729264)"
     style="display:inline">
    <g
       id="g3738"
       transform="matrix(0.03266983,0,0,0.04746589,64.796643,44.312355)"
       inkscape:export-filename="/home/scott/dev/Godot/GroupCallbacks/addons/callbackhelper/icon.png"
       inkscape:export-xdpi="96"
       inkscape:export-ydpi="96">
      <path
         style="fill:#d1d1d1;fill-opacity:1;stroke-width:2.11667"
         d="m 82.416927,127.40458 c 7.807191,-0.4061 21.142193,-0.4088 29.633333,-0.006 8.49114,0.40279 2.10344,0.73506 -14.194896,0.73836 -16.298333,0.003 -23.24563,-0.32626 -15.438437,-0.73236 z m 2.116667,-65.616659 c 7.807191,-0.4061 21.142186,-0.4088 29.633336,-0.0059 8.49113,0.402798 2.10343,0.735059 -14.1949,0.738363 -16.298332,0.0034 -23.24563,-0.326258 -15.438436,-0.732358 z"
         id="path3748" />
      <path
         style="fill:#cacaca;fill-opacity:1;stroke-width:2.11667"
         d="m 131.07634,130.03042 c 0.0431,-3.4925 0.51752,-4.665 1.05419,-2.60555 0.53666,2.05945 0.50137,4.91695 -0.0784,6.35 -0.57981,1.43305 -1.0189,-0.25195 -0.97576,-3.74445 z m 26.83403,-28.04583 c -2.63286,-3.357152 -2.55799,-3.432019 0.79916,-0.79916 2.03729,1.59775 3.70416,3.26463 3.70416,3.70417 0,1.74209 -1.73817,0.62082 -4.50332,-2.90501 z M 65.381243,99.338756 c 0,-2.910416 0.480426,-4.101041 1.067617,-2.645833 0.587189,1.455208 0.587189,3.836457 0,5.291667 -0.587191,1.45521 -1.067617,0.26458 -1.067617,-2.645834 z M 130.99791,90.87209 c 0,-2.910417 0.48042,-4.101042 1.06761,-2.645833 0.58719,1.455208 0.58719,3.836458 0,5.291666 -0.58719,1.455208 -1.06761,0.264583 -1.06761,-2.645833 z M 65.459674,60.180425 c 0.04314,-3.4925 0.517521,-4.664998 1.054189,-2.605549 0.536666,2.059447 0.501373,4.916946 -0.07842,6.35 -0.579812,1.433051 -1.018904,-0.251951 -0.975766,-3.744451 z M 52.347033,60.4396 c 0,-0.439539 1.666875,-2.106413 3.704166,-3.704167 3.357152,-2.63286 3.432018,-2.557993 0.799158,0.799159 -2.765147,3.525833 -4.503324,4.647097 -4.503324,2.905008 z"
         id="path3746" />
      <path
         style="fill:#7f7f7f;fill-opacity:1;stroke-width:2.11667"
         d="m 143.36369,130.2896 c 0,-0.43954 1.66688,-2.10642 3.70417,-3.70417 3.35715,-2.63286 3.43202,-2.55799 0.79916,0.79916 -2.76515,3.52583 -4.50333,4.6471 -4.50333,2.90501 z m -4.50332,-38.888343 c -2.63286,-3.357152 -2.55799,-3.432019 0.79916,-0.799159 3.52583,2.765148 4.6471,4.503325 2.90501,4.503325 -0.43954,0 -2.10642,-1.666875 -3.70417,-3.704166 z m -97.366662,-6.35 c -2.63286,-3.357152 -2.557992,-3.432018 0.799158,-0.799158 3.525834,2.765147 4.647097,4.503324 2.905008,4.503324 -0.439537,0 -2.106412,-1.666875 -3.704166,-3.704166 z"
         id="path3744" />
      <path
         style="fill:#3a3a3a;fill-opacity:1;stroke-width:2.11667"
         d="m 126.843,134.26375 c 0.0431,-3.4925 0.51753,-4.66499 1.05419,-2.60554 0.53667,2.05944 0.50138,4.91694 -0.0784,6.35 -0.57981,1.43305 -1.0189,-0.25196 -0.97577,-3.74446 z M 69.771438,103.57209 c 0,-4.074584 0.4356,-5.741459 0.968,-3.704167 0.532399,2.037287 0.532399,5.371037 0,7.408337 -0.5324,2.03729 -0.968,0.37041 -0.968,-3.70417 z M 126.92144,86.638757 c 0,-4.074583 0.43559,-5.741458 0.968,-3.704167 0.53239,2.037292 0.53239,5.371042 0,7.408333 -0.53241,2.037292 -0.968,0.370417 -0.968,-3.704166 z M 69.693007,55.947092 c 0.04314,-3.4925 0.517521,-4.664998 1.054189,-2.605549 0.536666,2.059447 0.501373,4.916946 -0.07842,6.349999 -0.579813,1.433051 -1.018905,-0.251951 -0.975767,-3.74445 z"
         id="path3742" />
      <path
         style="fill:#a30097;fill-opacity:1;stroke:#a30097;stroke-width:7.61828129;stroke-miterlimit:4;stroke-dasharray:none;stroke-opacity:1"
         d="m 128.15755,134.86771 c -0.66885,-6.95396 -0.66885,-6.95396 -31.36052,-8.01229 -16.880415,-0.58208 -29.21486,-1.80168 -27.409877,-2.71021 10.313305,-5.19117 60.167867,-0.54761 61.258587,5.70576 1.07629,6.17054 1.07629,6.17054 15.36379,-5.95339 7.85812,-6.66816 14.2875,-12.87667 14.2875,-13.79668 0,-0.92001 -6.42938,-7.08678 -14.2875,-13.703938 -14.2875,-12.031198 -14.2875,-12.031198 -14.95078,-5.603034 -0.66327,6.428162 -0.66327,6.428162 -31.220827,6.428162 -30.557558,0 -30.557558,0 -30.557558,7.55494 0,7.55495 0,7.55495 -15.595091,-5.344867 C 28.366698,78.48936 28.699012,81.585617 49.864551,63.83351 68.222032,48.436598 68.222032,48.436598 69.280365,55.366843 c 1.058333,6.930248 1.058333,6.930248 31.749995,7.988582 16.88042,0.582083 29.21486,1.801679 27.40988,2.710211 -10.27046,5.169601 -60.166864,0.552776 -61.25859,-5.668147 -1.076285,-6.132936 -1.076285,-6.132936 -15.363784,6.068676 -17.340305,14.808726 -17.340305,12.745818 0,27.347719 14.287499,12.031196 14.287499,12.031196 14.950774,5.603034 0.663276,-6.428162 0.663276,-6.428162 31.220831,-6.428162 30.557559,0 30.557559,0 30.557559,-7.554943 0,-7.554944 0,-7.554944 15.59509,5.34487 25.06789,20.735447 24.45522,18.403347 8.3722,31.868147 -25.14541,21.0519 -23.58279,20.26786 -24.35677,12.22088 z"
         id="path3740" />
    </g>
  </g>
</svg>
